<?xml version="1.0" encoding="utf-8"?>
<!-- Generator: Adobe Illustrator 23.0.3, SVG Export Plug-In . SVG Version: 6.00 Build 0)  -->
<svg version="1.1" baseProfile="basic" id="Layer_1"
	 xmlns="http://www.w3.org/2000/svg" xmlns:xlink="http://www.w3.org/1999/xlink" x="0px" y="0px" viewBox="0 0 757.4 173"
	 xml:space="preserve">
<style type="text/css">
	.st0{fill:#2776AB;}
	.st1{fill:#6D6E6D;}
	.st2{fill:#2777AA;}
</style>
<g id="Layer_3">
</g>
<g id="Layer_4">
</g>
<g id="Layer_5">
</g>
<g id="Layer_6">
</g>
<g id="Layer_7">
</g>
<g>
	<path class="st0" d="M180.7,127.1h21v3.6h-17V141h16.7v3.6h-16.7v14.6h-4V127.1z"/>
	<path class="st0" d="M205.7,147.5c0-6.7,4.4-12.1,11.5-12.1s11.5,5.4,11.5,12.1s-4.4,12.2-11.5,12.2S205.7,154.3,205.7,147.5z
		 M224.8,147.5c0-4.7-2.7-8.9-7.7-8.9c-4.9,0-7.7,4.2-7.7,8.9c0,4.8,2.8,9,7.7,9C222.1,156.5,224.8,152.3,224.8,147.5z"/>
	<path class="st0" d="M234.5,136h3.6v3.7c1.9-2.4,4.6-4.2,7.7-4.2v3.7c-0.4-0.1-0.9-0.1-1.4-0.1c-2.2,0-5.2,1.8-6.3,3.7v16.4h-3.6
		V136z"/>
	<path class="st0" d="M278.3,143.4c0-2.9-1.3-4.8-4.3-4.8c-2.4,0-4.9,1.7-6.1,3.6v17h-3.6v-15.7c0-2.9-1.2-4.8-4.3-4.8
		c-2.4,0-4.8,1.7-6.1,3.6v16.9h-3.6V136h3.6v3.4c1-1.5,4.1-3.9,7.5-3.9c3.6,0,5.6,1.9,6.2,4.3c1.3-2.1,4.4-4.3,7.8-4.3
		c4.2,0,6.5,2.4,6.5,7v16.8h-3.6V143.4z"/>
	<path class="st0" d="M299.2,135.4c7,0,11.1,5.5,11.1,12.4v0.9h-18.8c0.3,4.4,3.4,8,8.4,8c2.6,0,5.3-1.1,7.2-2.9l1.7,2.4
		c-2.3,2.3-5.4,3.6-9.2,3.6c-6.9,0-11.8-4.9-11.8-12.2C287.7,140.8,292.5,135.4,299.2,135.4z M291.5,146.1h15.2
		c0-3.5-2.4-7.7-7.6-7.7C294.2,138.4,291.7,142.5,291.5,146.1z"/>
	<path class="st0" d="M316.1,136h3.6v3.7c1.9-2.4,4.6-4.2,7.7-4.2v3.7c-0.4-0.1-0.9-0.1-1.4-0.1c-2.2,0-5.2,1.8-6.3,3.7v16.4h-3.6
		L316.1,136L316.1,136z"/>
	<path class="st0" d="M331.9,127.1h3.6v32h-3.6V127.1z"/>
	<path class="st0" d="M344,165.3c1.6,0,2.6-0.5,3.5-2.4l1.5-3.5l-9.7-23.4h3.9l7.7,19l7.7-19h3.9l-11.6,27.9
		c-1.4,3.4-3.7,4.7-6.8,4.7c-0.8,0-2-0.1-2.6-0.3l0.6-3.3C342.5,165.2,343.4,165.3,344,165.3z"/>
	<path class="st0" d="M378.8,127.1h4v32h-4V127.1z"/>
	<path class="st0" d="M405.8,144c0-4.1-2.1-5.4-5.2-5.4c-2.8,0-5.5,1.7-6.9,3.6v16.9h-3.6V136h3.6v3.4c1.6-1.9,4.8-3.9,8.3-3.9
		c4.8,0,7.4,2.4,7.4,7.5v16.3h-3.6L405.8,144L405.8,144z"/>
	<path class="st0" d="M415.9,129.6c0-1.3,1.1-2.4,2.4-2.4s2.4,1.1,2.4,2.4s-1.1,2.4-2.4,2.4C417,132.1,415.9,131,415.9,129.6z
		 M416.6,136h3.6v23.2h-3.6V136z"/>
	<path class="st0" d="M428.1,154.3v-15.2h-3.8V136h3.8v-6.3h3.6v6.3h4.7v3.2h-4.7v14.4c0,1.7,0.8,3,2.4,3c1,0,2-0.4,2.4-1l1.1,2.7
		c-0.9,0.9-2.2,1.5-4.3,1.5C429.8,159.7,428.1,157.8,428.1,154.3z"/>
	<path class="st0" d="M440.9,129.6c0-1.3,1.1-2.4,2.4-2.4s2.4,1.1,2.4,2.4s-1.1,2.4-2.4,2.4C442,132.1,440.9,131,440.9,129.6z
		 M441.5,136h3.6v23.2h-3.6V136z"/>
	<path class="st0" d="M466.8,156.5c-1.9,2.1-4.6,3.2-7.7,3.2c-3.9,0-8.1-2.6-8.1-7.7c0-5.2,4.2-7.6,8.1-7.6c3.2,0,5.8,1,7.7,3.2
		v-4.2c0-3.1-2.5-4.9-5.9-4.9c-2.8,0-5,1-7.1,3.2l-1.7-2.5c2.5-2.6,5.5-3.8,9.3-3.8c4.9,0,9,2.2,9,7.8v15.9h-3.6L466.8,156.5
		L466.8,156.5z M466.8,149.9c-1.4-1.9-3.8-2.9-6.4-2.9c-3.4,0-5.7,2.1-5.7,5.1c0,2.9,2.4,5,5.7,5c2.5,0,5-1,6.4-2.9V149.9z"/>
	<path class="st0" d="M478.6,139.1h-3.8V136h3.8v-1.8c0-4.8,2.7-7.5,6.7-7.5c1.3,0,2.6,0.2,3.5,0.8l-0.9,2.7
		c-0.6-0.3-1.2-0.5-2.1-0.5c-2.4,0-3.6,1.6-3.6,4.6v1.8h4.7v3.2h-4.7v20h-3.6V139.1z"/>
	<path class="st0" d="M492.4,165.3c1.6,0,2.6-0.5,3.5-2.4l1.5-3.5l-9.7-23.4h3.9l7.7,19l7.7-19h3.9l-11.6,27.9
		c-1.4,3.4-3.7,4.7-6.8,4.7c-0.8,0-2-0.1-2.6-0.3l0.6-3.3C491,165.2,491.8,165.3,492.4,165.3z"/>
</g>
<g>
	<path class="st1" d="M204.6,52.6c8.6,0,14.2,3.9,18.1,9l-5.5,3.2c-2.6-3.5-7.2-6.2-12.5-6.2c-9.5,0-16.6,7.3-16.6,17.5
		s7.1,17.6,16.6,17.6c5.1,0,9.4-2.5,11.6-4.5V81h-14.6v-6H223v16.8c-4.4,4.9-10.7,8.1-18.4,8.1c-13.1,0-23.7-9.4-23.7-23.7
		S191.5,52.6,204.6,52.6z"/>
	<path class="st1" d="M256.3,52.6c13.6,0,23,10.1,23,23.6c0,13.6-9.4,23.6-23,23.6s-23-10.1-23-23.6
		C233.3,62.6,242.7,52.6,256.3,52.6z M256.3,58.7c-9.8,0-15.9,7.5-15.9,17.5s6.2,17.5,15.9,17.5c9.7,0,15.9-7.5,15.9-17.5
		C272.3,66.1,266,58.7,256.3,58.7z"/>
	<path class="st1" d="M290.4,76.2c0-14,10.1-23.6,22.7-23.6c7.3,0,12.7,3.2,16.6,8.1l-3.2,2.1c-2.8-4-7.8-6.6-13.3-6.6
		c-10.5,0-18.7,8.1-18.7,20.1c0,11.8,8.2,20.1,18.7,20.1c5.5,0,10.5-2.7,13.3-6.6l3.2,2.1c-4,5-9.3,8.1-16.6,8.1
		C300.5,99.8,290.4,90.2,290.4,76.2z"/>
	<path class="st1" d="M361.5,52.6c13.3,0,22.2,10.3,22.2,23.6s-8.8,23.6-22.2,23.6c-13.4,0-22.2-10.3-22.2-23.6
		C339.3,62.8,348.1,52.6,361.5,52.6z M361.5,56.1c-11.1,0-18.1,8.5-18.1,20.1c0,11.5,7,20.1,18.1,20.1c11,0,18.1-8.6,18.1-20.1
		C379.6,64.6,372.5,56.1,361.5,56.1z"/>
	<path class="st1" d="M400.7,59.6V99h-3.9V53.3h4l28.6,38.9V53.3h3.9V99h-3.8L400.7,59.6z"/>
	<path class="st1" d="M459.7,56.9h-14.9v-3.6h33.8v3.6h-14.9V99h-4V56.9z"/>
	<path class="st1" d="M504,80.1h-10V99h-3.9V53.3h17c7.9,0,13.9,5,13.9,13.3s-5.9,12.9-12.7,13.1L521.6,99h-4.7L504,80.1z
		 M506.8,56.9H494v19.6h12.8c6,0,10.1-4.1,10.1-9.9C516.9,60.9,512.8,56.9,506.8,56.9z"/>
	<path class="st1" d="M562.8,87.8h-24.3L533.9,99h-4.4l18.7-45.7h4.9L571.7,99h-4.4L562.8,87.8z M539.7,84.2h21.8l-11-27L539.7,84.2
		z"/>
	<path class="st1" d="M577.5,76.2c0-14,10.2-23.6,23-23.6c7.4,0,12.9,3.2,16.8,8.1l-3.3,2.1c-2.9-4-7.9-6.6-13.5-6.6
		c-10.6,0-18.9,8.1-18.9,20.1c0,11.8,8.3,20.1,18.9,20.1c5.6,0,10.6-2.7,13.5-6.6l3.3,2.1c-4,5-9.4,8.1-16.8,8.1
		C587.7,99.8,577.5,90.2,577.5,76.2z"/>
	<path class="st1" d="M640.3,56.9h-14.9v-3.6h33.8v3.6h-14.9V99h-4L640.3,56.9L640.3,56.9z"/>
	<path class="st1" d="M689.1,52.6c13.3,0,22.2,10.3,22.2,23.6s-8.8,23.6-22.2,23.6s-22.2-10.3-22.2-23.6
		C667,62.8,675.7,52.6,689.1,52.6z M689.1,56.1c-11.1,0-18.1,8.5-18.1,20.1c0,11.5,7,20.1,18.1,20.1c11,0,18.1-8.6,18.1-20.1
		C707.2,64.6,700.1,56.1,689.1,56.1z"/>
	<path class="st1" d="M738.3,80.1h-10.1V99h-3.9V53.3h17c7.9,0,13.9,5,13.9,13.3s-5.9,12.9-12.7,13.1L755.9,99h-4.7L738.3,80.1z
		 M741.1,56.9h-12.8v19.6h12.8c6,0,10.1-4.1,10.1-9.9C751.2,60.9,747.1,56.9,741.1,56.9z"/>
</g>
<g>
	<rect x="36.9" y="17.6" class="st2" width="8.5" height="8.5"/>
	<path class="st2" d="M163,48.7c1,4.3,1.5,8.8,1.5,13.4c0,4.6-0.5,9.1-1.5,13.4c-2.6,11.5-8.4,21.8-16.5,29.9
		c-11.1,11.1-26.4,17.9-43.3,17.9c-16.9,0-32.2-6.9-43.3-17.9c-3.5-3.5-6.6-7.4-9.2-11.7H32.5v-8.5h14c-1.6-4-2.8-8.3-3.6-12.7
		c-0.2-1.4-0.4-2.8-0.6-4.2H0.9v-8.5h41.3h17.8v-8.5H43c0.5-2.9,1.2-5.7,2.1-8.5H22v-8.5h26.6c1.5-3,3.2-5.8,5.2-8.5h8.5v-8.5h-7.8
		V9.1h18.1c9-5.3,19.6-8.3,30.8-8.3c16.9,0,32.2,6.9,43.3,17.9c3.1,3.1,5.8,6.5,8.2,10.2l-19.7,19.6c-1.7-4.1-4.3-7.7-7.4-10.9
		c-6.2-6.2-14.9-10.1-24.4-10.1c-9.5,0-18.1,3.9-24.4,10.1c-6.2,6.2-10.1,14.9-10.1,24.4c0,3.6,0.6,7.2,1.6,10.4
		c1.5,4.8,4,9.1,7.3,12.7c0.4,0.4,0.8,0.8,1.2,1.2c6.2,6.2,14.9,10.1,24.4,10.1c9.5,0,18.1-3.9,24.4-10.1c3.1-3.1,5.7-6.9,7.4-11
		h-31c-7.4,0-13.4-6-13.4-13.4c0-7.4,6-13.4,13.4-13.4H163z"/>
	<rect x="5.1" y="42.9" class="st2" width="8.5" height="8.5"/>
	<rect x="15.6" y="85.2" class="st2" width="8.5" height="8.5"/>
</g>
</svg>
